<svg width="42" height="42" viewBox="0 0 42 42" fill="none" xmlns="http://www.w3.org/2000/svg">
<path d="M13.6458 19.7529C13.6487 19.7529 13.6515 19.7529 13.6544 19.7529H17.1717V16.227C17.167 15.5158 17.7396 14.9354 18.4507 14.9307C18.4537 14.9307 18.4566 14.9307 18.4594 14.9307H23.5409C24.252 14.9307 24.8285 15.5072 24.8285 16.2183V19.7442H28.3458C29.0569 19.7395 29.6373 20.312 29.6421 21.0232C29.6421 21.029 29.6421 21.0347 29.6421 21.0405V26.1134C29.6421 26.8245 29.0656 27.401 28.3544 27.401H24.8285V30.9183C24.8333 31.6294 24.2606 32.2099 23.5495 32.2146C23.5466 32.2146 23.5437 32.2146 23.5409 32.2146H18.468C17.7569 32.2146 17.1804 31.6381 17.1804 30.927V27.401H13.6544C12.9433 27.4058 12.3629 26.8332 12.3581 26.122C12.3581 26.1191 12.3581 26.1162 12.3581 26.1134V21.0405C12.3581 20.3294 12.9346 19.7529 13.6458 19.7529ZM14.0865 25.6726H18.0359C18.5132 25.6726 18.9001 26.0596 18.9001 26.5368V30.4862H23.1001V26.5368C23.1001 26.0596 23.4871 25.6726 23.9643 25.6726H27.9137V21.4813H23.9643C23.4871 21.4813 23.1001 21.0943 23.1001 20.6171V16.6591H18.9088V20.6084C18.9088 21.0857 18.5218 21.4726 18.0446 21.4726H14.0865V25.6726Z" fill="#FFD004"/>
<path d="M5.96296 8.46665H13.084V5.42467C13.0391 4.03656 14.1281 2.87486 15.5162 2.83003C15.587 2.82776 15.6577 2.82841 15.7284 2.83208H26.2716C27.6586 2.75981 28.8416 3.82558 28.914 5.21251C28.9177 5.28316 28.9184 5.35392 28.916 5.42467V8.44937H36.037C38.7852 8.44937 42 10.0136 42 14.4123V33.2086C42 37.6074 38.7852 39.1716 36.037 39.1716H5.96296C3.21481 39.1716 0 37.6074 0 33.2086V14.4296C0 10.0308 3.20617 8.46665 5.96296 8.46665ZM27.1877 5.42467C27.1877 5.17406 27.1877 4.49998 26.263 4.49998H15.7284C14.8037 4.49998 14.8037 5.16542 14.8037 5.42467V8.44937H27.1877V5.42467ZM1.72839 33.2086C1.72839 37.0284 4.68395 37.4432 5.96296 37.4432H36.037C37.3074 37.4432 40.2716 37.0284 40.2716 33.2086V14.4296C40.2716 10.6099 37.316 10.195 36.037 10.195H5.96296C4.69259 10.195 1.72839 10.6099 1.72839 14.4296V33.2086Z" fill="#FFD004"/>
</svg>
