<svg width="44" height="44" viewBox="0 0 44 44" fill="none" xmlns="http://www.w3.org/2000/svg">
<g clip-path="url(#clip0)">
<path d="M43.1471 8.84264C43.1442 8.84264 43.1414 8.84264 43.1386 8.84264H40.2473V7.8533C40.2629 7.46172 40.0096 7.1098 39.6333 7.00042C37.626 6.47441 35.5591 6.21065 33.484 6.21577C30.0725 6.21577 25.4243 6.98336 21.9872 10.4802C18.5757 6.94925 13.8934 6.21577 10.4904 6.21577C8.41535 6.21065 6.3484 6.47441 4.34115 7.00042C3.96482 7.1098 3.71151 7.46172 3.72708 7.8533V8.83411H0.852878C0.381876 8.83411 0 9.21598 0 9.68699V36.9279C0 37.3989 0.381876 37.7808 0.852878 37.7808C0.99936 37.7804 1.14328 37.7422 1.27079 37.6699C1.35608 37.6273 9.88486 32.962 21.791 35.9642H21.919H21.9957C22.0638 35.9724 22.1324 35.9724 22.2004 35.9642C34.1407 32.9365 42.6695 37.5932 42.7207 37.6699C42.9845 37.8223 43.3097 37.8223 43.5736 37.6699C43.8358 37.5185 43.9982 37.2393 44 36.9365V9.69552C44 9.22451 43.6182 8.84264 43.1471 8.84264ZM1.70576 35.5718V10.5484H3.74414V31.9386C3.73881 32.4096 4.11631 32.7957 4.58731 32.8011C4.63337 32.8016 4.67942 32.7984 4.72495 32.7915C6.48934 32.5221 8.27068 32.3795 10.0554 32.365C12.5277 32.3222 14.9897 32.694 17.339 33.4652C12.0336 32.8237 6.65213 33.5488 1.70576 35.5718ZM10.0554 30.6678C8.50416 30.6713 6.95469 30.771 5.41578 30.9663V8.52707C7.07633 8.15714 8.77207 7.96833 10.4733 7.96417C13.6631 7.96417 18.064 8.69765 21.1173 12.1433L21.1429 33.3885C19.3689 32.2286 15.9062 30.6678 10.0554 30.6678ZM22.8486 12.1433C25.9019 8.73176 30.3028 7.96417 33.4925 7.96417C35.1937 7.96918 36.8894 8.15788 38.5501 8.52707V30.9663C37.0198 30.7692 35.4789 30.6666 33.936 30.6593C28.1194 30.6593 24.6482 32.22 22.8486 33.38V12.1433ZM42.2857 35.5718C37.3288 33.5433 31.935 32.818 26.6183 33.4652C28.9788 32.6913 31.4525 32.3193 33.936 32.365C35.732 32.375 37.5248 32.5147 39.3006 32.7829C39.7663 32.8536 40.2012 32.5334 40.2719 32.0677C40.2788 32.0222 40.282 31.9761 40.2814 31.9301V10.5484H42.3198L42.2857 35.5718Z" fill="#FFD004"/>
</g>
<defs>
<clipPath id="clip0">
<rect width="44" height="44" fill="white"/>
</clipPath>
</defs>
</svg>
