<svg width="46" height="47" viewBox="0 0 46 47" fill="none" xmlns="http://www.w3.org/2000/svg">
<path d="M41.5078 4.03906H37.2252V2.75391C37.2252 1.2354 36.0161 0 34.5299 0C33.0437 0 31.8346 1.2354 31.8346 2.75391V4.03906H16.7409V2.75391C16.7409 1.2354 15.5317 0 14.0455 0C12.5593 0 11.3502 1.2354 11.3502 2.75391V4.07303C11.2739 4.05146 11.1938 4.03906 11.1107 4.03906H7.53097C5.05398 4.03906 3.03879 6.09807 3.03879 8.62891V24.2649C3.03879 24.7719 3.44111 25.1829 3.93722 25.1829C4.43334 25.1829 4.83566 24.7719 4.83566 24.2649V13.4941H37.2252C37.7213 13.4941 38.1237 13.0832 38.1237 12.5762C38.1237 12.0692 37.7213 11.6582 37.2252 11.6582H4.83566V8.62891C4.83566 7.1104 6.04478 5.875 7.53097 5.875H11.1107C11.1938 5.875 11.2739 5.86252 11.3502 5.84104V7.02246C11.3502 8.54097 12.5593 9.77637 14.0455 9.77637C15.5317 9.77637 16.7409 8.54097 16.7409 7.02246V5.875H31.8346V7.02246C31.8346 8.54097 33.0437 9.77637 34.5299 9.77637C36.0161 9.77637 37.2252 8.54097 37.2252 7.02246V5.875H41.5078C42.994 5.875 44.2031 7.1104 44.2031 8.62891V43.5112C44.2031 44.4225 43.4775 45.1641 42.5854 45.1641C41.6933 45.1641 40.9677 44.4225 40.9677 43.5112V41.1365C40.9677 40.6295 40.5654 40.2185 40.0692 40.2185H29.6185C29.1224 40.2185 28.7201 40.6295 28.7201 41.1365C28.7201 41.6435 29.1224 42.0544 29.6185 42.0544H39.1708V43.5112C39.1708 44.1089 39.3189 44.6718 39.5791 45.1641H3.41406C2.52236 45.1641 1.79688 44.4228 1.79688 43.5117V42.0544H21.9062C22.4023 42.0544 22.8046 41.6435 22.8046 41.1365C22.8046 40.6295 22.4023 40.2185 21.9062 40.2185H12.9293C14.4993 38.8371 15.4962 36.7937 15.4962 34.5156C15.4962 30.365 12.1913 26.9883 8.12897 26.9883C4.06669 26.9883 0.761785 30.365 0.761785 34.5156C0.761785 36.7937 1.75869 38.8371 3.32862 40.2185H0.898438C0.40232 40.2185 0 40.6295 0 41.1365V43.5117C0 45.4351 1.53157 47 3.41406 47H42.5854C44.4682 47 46 45.435 46 43.5112V8.62891C46 6.09807 43.9848 4.03906 41.5078 4.03906ZM14.944 7.02246C14.944 7.52863 14.5409 7.94043 14.0455 7.94043C13.5501 7.94043 13.1471 7.52863 13.1471 7.02246V2.75391C13.1471 2.24774 13.5501 1.83594 14.0455 1.83594C14.5409 1.83594 14.944 2.24774 14.944 2.75391V7.02246ZM35.4284 7.02246C35.4284 7.52863 35.0253 7.94043 34.5299 7.94043C34.0345 7.94043 33.6315 7.52863 33.6315 7.02246V2.75391C33.6315 2.24774 34.0345 1.83594 34.5299 1.83594C35.0253 1.83594 35.4284 2.24774 35.4284 2.75391V7.02246ZM2.55866 34.5156C2.55866 31.3774 5.05748 28.8242 8.12897 28.8242C11.2005 28.8242 13.6993 31.3774 13.6993 34.5156C13.6993 37.6539 11.2005 40.207 8.12897 40.207C5.05748 40.207 2.55866 37.6539 2.55866 34.5156Z" fill="#FFD004"/>
<path d="M42.0746 11.9272C41.9075 11.7564 41.6757 11.6582 41.4395 11.6582C41.2031 11.6582 40.9714 11.7564 40.8043 11.9272C40.6372 12.0979 40.541 12.3347 40.541 12.5762C40.541 12.8176 40.6371 13.0544 40.8043 13.2252C40.9715 13.3959 41.2031 13.4941 41.4395 13.4941C41.6757 13.4941 41.9075 13.3959 42.0746 13.2252C42.2417 13.0544 42.3379 12.8176 42.3379 12.5762C42.3379 12.3347 42.2418 12.0979 42.0746 11.9272Z" fill="#FFD004"/>
<path d="M26.8319 40.487C26.6649 40.3163 26.4331 40.219 26.1968 40.219C25.9605 40.219 25.7287 40.3163 25.5616 40.487C25.3945 40.6587 25.2983 40.8946 25.2983 41.136C25.2983 41.3784 25.3944 41.6143 25.5616 41.786C25.7287 41.9567 25.9605 42.054 26.1968 42.054C26.4331 42.054 26.6649 41.9567 26.8319 41.786C26.999 41.6143 27.0952 41.3775 27.0952 41.136C27.0952 40.8946 26.9991 40.6587 26.8319 40.487Z" fill="#FFD004"/>
<path d="M20.3267 27.9062C18.4442 27.9062 16.9126 29.4711 16.9126 31.3945C16.9126 33.318 18.4442 34.8828 20.3267 34.8828C22.2092 34.8828 23.7407 33.318 23.7407 31.3945C23.7407 29.4711 22.2092 27.9062 20.3267 27.9062ZM20.3267 33.0469C19.435 33.0469 18.7095 32.3056 18.7095 31.3945C18.7095 30.4834 19.435 29.7422 20.3267 29.7422C21.2184 29.7422 21.9438 30.4834 21.9438 31.3945C21.9438 32.3056 21.2184 33.0469 20.3267 33.0469Z" fill="#FFD004"/>
<path d="M28.7119 27.9062C26.8294 27.9062 25.2979 29.4711 25.2979 31.3945C25.2979 33.318 26.8294 34.8828 28.7119 34.8828C30.5944 34.8828 32.126 33.318 32.126 31.3945C32.126 29.4711 30.5944 27.9062 28.7119 27.9062ZM28.7119 33.0469C27.8202 33.0469 27.0947 32.3056 27.0947 31.3945C27.0947 30.4834 27.8202 29.7422 28.7119 29.7422C29.6036 29.7422 30.3291 30.4834 30.3291 31.3945C30.3291 32.3056 29.6036 33.0469 28.7119 33.0469Z" fill="#FFD004"/>
<path d="M37.0977 27.9062C35.2152 27.9062 33.6836 29.4711 33.6836 31.3945C33.6836 33.318 35.2152 34.8828 37.0977 34.8828C38.9802 34.8828 40.5117 33.318 40.5117 31.3945C40.5117 29.4711 38.9802 27.9062 37.0977 27.9062ZM37.0977 33.0469C36.206 33.0469 35.4805 32.3056 35.4805 31.3945C35.4805 30.4834 36.206 29.7422 37.0977 29.7422C37.9894 29.7422 38.7148 30.4834 38.7148 31.3945C38.7148 32.3056 37.9894 33.0469 37.0977 33.0469Z" fill="#FFD004"/>
<path d="M11.9414 18.3594C10.0589 18.3594 8.52734 19.9242 8.52734 21.8477C8.52734 23.7711 10.0589 25.3359 11.9414 25.3359C13.8239 25.3359 15.3555 23.7711 15.3555 21.8477C15.3555 19.9242 13.8239 18.3594 11.9414 18.3594ZM11.9414 23.5C11.0497 23.5 10.3242 22.7587 10.3242 21.8477C10.3242 20.9366 11.0497 20.1953 11.9414 20.1953C12.8331 20.1953 13.5586 20.9366 13.5586 21.8477C13.5586 22.7587 12.8331 23.5 11.9414 23.5Z" fill="#FFD004"/>
<path d="M28.7119 18.3594C26.8294 18.3594 25.2979 19.9242 25.2979 21.8477C25.2979 23.7711 26.8294 25.3359 28.7119 25.3359C30.5944 25.3359 32.126 23.7711 32.126 21.8477C32.126 19.9242 30.5944 18.3594 28.7119 18.3594ZM28.7119 23.5C27.8202 23.5 27.0947 22.7587 27.0947 21.8477C27.0947 20.9366 27.8202 20.1953 28.7119 20.1953C29.6036 20.1953 30.3291 20.9366 30.3291 21.8477C30.3291 22.7587 29.6036 23.5 28.7119 23.5Z" fill="#FFD004"/>
<path d="M37.0977 18.3594C35.2152 18.3594 33.6836 19.9242 33.6836 21.8477C33.6836 23.7711 35.2152 25.3359 37.0977 25.3359C38.9802 25.3359 40.5117 23.7711 40.5117 21.8477C40.5117 19.9242 38.9802 18.3594 37.0977 18.3594ZM37.0977 23.5C36.206 23.5 35.4805 22.7587 35.4805 21.8477C35.4805 20.9366 36.206 20.1953 37.0977 20.1953C37.9894 20.1953 38.7148 20.9366 38.7148 21.8477C38.7148 22.7587 37.9894 23.5 37.0977 23.5Z" fill="#FFD004"/>
<path d="M20.3267 18.3594C18.4442 18.3594 16.9126 19.9242 16.9126 21.8477C16.9126 23.7711 18.4442 25.3359 20.3267 25.3359C22.2092 25.3359 23.7407 23.7711 23.7407 21.8477C23.7407 19.9242 22.2092 18.3594 20.3267 18.3594ZM20.3267 23.5C19.435 23.5 18.7095 22.7587 18.7095 21.8477C18.7095 20.9366 19.435 20.1953 20.3267 20.1953C21.2184 20.1953 21.9438 20.9366 21.9438 21.8477C21.9438 22.7587 21.2184 23.5 20.3267 23.5Z" fill="#FFD004"/>
<path d="M11.3298 32.2786C10.9788 31.9201 10.4101 31.9201 10.0591 32.2786L7.13327 35.2682L6.1334 34.2466C5.78247 33.8881 5.21376 33.8881 4.86274 34.2466C4.5119 34.605 4.5119 35.1863 4.86274 35.5448L6.49798 37.2155C6.66653 37.3876 6.895 37.4843 7.13327 37.4843C7.37153 37.4843 7.60001 37.3876 7.76855 37.2155L11.3298 33.5768C11.6806 33.2183 11.6806 32.6371 11.3298 32.2786Z" fill="#FFD004"/>
</svg>
