<svg width="45" height="45" viewBox="0 0 45 45" fill="none" xmlns="http://www.w3.org/2000/svg">
<g clip-path="url(#clip0)">
<path d="M43.0941 20.0549C43.0941 16.332 42.0647 12.7553 40.196 9.66969C40.6511 8.98651 41.3093 8.32924 42.2509 7.9772C42.5861 7.85172 42.8028 7.53867 42.8028 7.17943C42.8028 6.82019 42.5861 6.50714 42.2508 6.38157C40.4927 5.72429 39.7213 4.00247 39.4181 3.0347C39.3063 2.67757 38.9793 2.43749 38.6046 2.43749C38.2299 2.43749 37.9031 2.67739 37.7911 3.03461C37.6043 3.63112 37.2392 4.51372 36.5753 5.25731C35.8364 4.58168 35.043 3.95549 34.1967 3.38788C33.8945 3.18521 33.4854 3.26591 33.2829 3.56798C33.0802 3.87005 33.1608 4.27926 33.463 4.48175C34.201 4.97675 34.8951 5.52031 35.5455 6.10399C35.3631 6.20954 35.168 6.30333 34.9585 6.38174C34.6232 6.50723 34.4066 6.82028 34.4066 7.17952C34.4066 7.53875 34.6232 7.8518 34.9586 7.97738C36.7167 8.63465 37.488 10.3566 37.7912 11.3244C37.9032 11.6815 38.2301 11.9215 38.6047 11.9215C38.9793 11.9215 39.3062 11.6816 39.4182 11.3243C39.441 11.2514 39.467 11.1737 39.4953 11.093C40.9709 13.8013 41.777 16.8709 41.777 20.0549C41.777 26.0624 38.9344 31.4177 34.5245 34.8489L33.9142 29.1447C35.9763 26.6817 37.2196 23.5109 37.2196 20.0548C37.2196 15.5152 35.0741 11.4684 31.7451 8.8713C31.7451 8.8713 31.4524 6.13552 31.4524 6.13543C31.295 4.66423 29.7383 3.76055 28.3968 4.28259C28.1262 4.38788 27.8769 4.54603 27.6667 4.74624C27.1938 5.19663 26.9983 5.79358 26.968 6.42881C25.72 6.06843 24.402 5.87463 23.0395 5.87463C20.832 5.87463 18.7414 6.38288 16.8766 7.28656L14.361 6.95428C13.7522 6.87393 13.191 7.30386 13.1106 7.91283L12.8012 10.2556C10.3612 12.8037 8.85927 16.2567 8.85927 20.0548C8.85927 23.6693 10.2197 26.9714 12.4541 29.4784L11.7275 34.9794C7.21955 31.5545 4.30182 26.14 4.30182 20.0548C4.30182 15.0498 6.2509 10.3443 9.78999 6.80517C13.3287 3.26617 18.0342 1.31718 23.0393 1.31718C25.7754 1.31718 28.4122 1.8934 30.8765 3.02969C31.207 3.18231 31.598 3.03768 31.7503 2.70742C31.9026 2.37707 31.7584 1.98587 31.428 1.8336C28.7895 0.61688 25.9672 0 23.0393 0C17.6824 0 12.6462 2.08606 8.8583 5.87393C5.07044 9.66179 2.98438 14.698 2.98438 20.0549C2.98438 25.4118 5.07044 30.448 8.85839 34.2358C9.69102 35.0685 10.5854 35.8166 11.529 36.4805L11.378 37.6238C11.3304 37.9843 11.5841 38.3153 11.9446 38.363C12.3055 38.4108 12.6362 38.1568 12.6838 37.7963L14.588 23.3822L16.6543 23.6551L14.1159 42.871C13.9514 44.1162 11.8864 43.833 12.0497 42.5963C12.0578 42.535 12.2817 40.8406 12.2817 40.8406C12.3292 40.48 12.0756 40.1491 11.715 40.1014C11.3545 40.0539 11.0235 40.3074 10.9758 40.6681L10.7436 42.4255C10.6646 43.0238 10.8233 43.617 11.1905 44.096C12.4105 45.6872 15.1554 45.08 15.4217 43.0435L15.9777 38.8348C18.2055 39.6714 20.5884 40.11 23.0393 40.11C25.5269 40.11 27.945 39.6594 30.2015 38.7983C30.2015 38.7983 30.649 42.9814 30.6497 42.988C30.8661 45.0106 33.6082 45.689 34.8536 44.1449C35.2324 43.6752 35.4057 43.086 35.3415 42.486L34.6887 36.3837C35.5813 35.7442 36.4284 35.0279 37.2203 34.236C41.0081 30.448 43.0941 25.4118 43.0941 20.0549ZM38.6046 9.80861C38.165 8.89984 37.4512 7.87147 36.3168 7.17943C37.4514 6.48721 38.165 5.45901 38.6046 4.55025C39.0443 5.4591 39.758 6.48738 40.8924 7.17943C39.7579 7.87165 39.0443 8.89984 38.6046 9.80861ZM35.9023 20.0549C35.9023 22.7099 35.0931 25.1791 33.7092 27.2301L33.2094 22.5581L31.9501 10.7881C34.3846 13.1299 35.9023 16.4181 35.9023 20.0549ZM28.2912 6.33002C28.3038 6.06887 28.4266 5.82054 28.6294 5.65466C29.1938 5.19821 30.0666 5.56518 30.1426 6.27558C30.1431 6.27971 31.8297 22.0435 31.8297 22.0435L29.7571 22.2652L29.5654 20.4733C29.5039 19.898 29.2271 19.375 28.7862 19.0006L28.0771 18.3981C27.8591 18.2129 27.737 17.9317 27.7506 17.6459C27.7507 17.6458 28.2912 6.33011 28.2912 6.33002ZM23.0393 7.19181C24.3852 7.19181 25.6829 7.40089 26.9031 7.78621L26.4351 17.583C26.4021 18.274 26.6971 18.9539 27.2243 19.4019C27.6258 19.7431 28.1752 20.0493 28.2558 20.6134L28.5175 23.0602L29.3921 31.2341C27.5167 32.3041 25.3487 32.9178 23.0393 32.9178C20.8421 32.9178 18.7725 32.363 16.9613 31.3876L18.0463 23.1744L18.4516 20.1063C18.4721 19.9508 18.5741 19.8193 18.7113 19.7713C19.9703 19.3307 20.9001 18.1654 21.0802 16.8027L22.0977 9.10005C22.1367 8.80509 22.0585 8.5125 21.8774 8.27629C21.6963 8.04007 21.4341 7.88851 21.1391 7.84961L19.6321 7.65054C20.7177 7.3518 21.8601 7.19181 23.0393 7.19181ZM13.7735 19.4885L13.3682 22.5565L12.6908 27.6852C11.1115 25.5491 10.1763 22.9093 10.1763 20.0549C10.1763 17.3329 11.0265 14.8058 12.4748 12.7248L12.0929 15.6155C11.9129 16.9784 12.5083 18.3451 13.6096 19.0974C13.7298 19.1794 13.7941 19.3329 13.7735 19.4885ZM14.7603 22.0761L15.0793 19.6609C15.1657 19.0076 14.8872 18.3749 14.3526 18.0096C13.6576 17.5349 13.2832 16.6628 13.3987 15.7879L14.3896 8.28665L15.6197 8.44919L14.7919 14.716C14.7443 15.0765 14.9979 15.4075 15.3586 15.4552C15.3878 15.4591 15.4169 15.4609 15.4456 15.4609C15.771 15.4609 16.054 15.2198 16.0977 14.8884L16.9255 8.62165L18.2293 8.79385L17.4014 15.0606C17.3539 15.4212 17.6075 15.7522 17.9682 15.7999C17.9974 15.8037 18.0265 15.8056 18.0552 15.8056C18.3806 15.8056 18.6636 15.5644 18.7073 15.2331L19.5351 8.96623L20.7652 9.12868L19.7743 16.6299C19.6587 17.5048 19.0707 18.2498 18.2761 18.5278C17.6651 18.7417 17.2319 19.2804 17.1457 19.9337L16.8266 22.3488L14.7603 22.0761ZM23.0393 38.7927C20.6103 38.7927 18.2883 38.3267 16.1565 37.4816L16.7783 32.7738C18.6679 33.7079 20.7928 34.2351 23.0393 34.2351C25.3827 34.2351 27.5942 33.6622 29.5438 32.6515L30.0548 37.4277C27.8866 38.3064 25.519 38.7927 23.0393 38.7927ZM33.8284 43.3177C33.6092 43.5895 33.3062 43.6513 32.9963 43.6843C32.4792 43.7395 32.0148 43.3643 31.9594 42.8478L29.8972 23.5749L31.9698 23.3532L34.0318 42.6261C34.0586 42.8762 33.9863 43.1219 33.8284 43.3177Z" fill="#FFD004"/>
<path d="M8.31424 36.7737C6.97308 36.2723 6.38158 34.9486 6.14826 34.2041C6.04157 33.8637 5.73002 33.635 5.37297 33.635C5.01593 33.635 4.70437 33.8637 4.59768 34.2041V34.2042C4.36445 34.9486 3.77286 36.2722 2.43197 36.7736C2.11198 36.8931 1.90527 37.1917 1.90527 37.5341C1.90527 37.8766 2.11198 38.1752 2.43171 38.2946C3.77286 38.7961 4.36436 40.1197 4.59768 40.8642C4.70437 41.2047 5.01593 41.4333 5.37297 41.4333C5.73002 41.4333 6.04157 41.2047 6.14826 40.8641C6.38149 40.1197 6.973 38.796 8.31397 38.2947C8.63396 38.1752 8.84067 37.8766 8.84067 37.5341C8.84067 37.1917 8.63387 36.8932 8.31424 36.7737ZM5.37297 39.3218C5.03639 38.6962 4.5377 38.0304 3.80842 37.5342C4.53779 37.0381 5.03639 36.3723 5.37297 35.7466C5.70956 36.3722 6.20824 37.038 6.93752 37.5342C6.20824 38.0304 5.70964 38.6962 5.37297 39.3218Z" fill="#FFD004"/>
</g>
<defs>
<clipPath id="clip0">
<rect width="45" height="45" fill="white"/>
</clipPath>
</defs>
</svg>
