<svg width="42" height="42" viewBox="0 0 42 42" fill="none" xmlns="http://www.w3.org/2000/svg">
<path d="M39.1993 0.699951H2.80071C1.25647 0.699951 0 1.95651 0 3.50066V26.5999C0 26.9863 0.313605 27.2999 0.699973 27.2999H41.2999C41.6863 27.2999 41.9999 26.9863 41.9999 26.5999V3.50066C42 1.95651 40.7435 0.699951 39.1993 0.699951ZM40.6 25.9H1.40003V3.50066C1.40003 2.72785 2.02863 2.09998 2.80071 2.09998H39.1993C39.9714 2.09998 40.6 2.72785 40.6 3.50066V25.9Z" fill="#FFD004"/>
<path d="M41.3 25.9H0.699973C0.313605 25.9 0 26.2136 0 26.6V30.0993C0 31.6435 1.25647 32.9 2.80071 32.9H39.1993C40.7435 32.9 42 31.6435 42 30.0993V26.6C42 26.2136 41.6864 25.9 41.3 25.9ZM40.6 30.0994C40.6 30.8722 39.9714 31.5001 39.1993 31.5001H2.80071C2.02863 31.5001 1.40003 30.8722 1.40003 30.0994V27.3001H40.6001V30.0994H40.6Z" fill="#FFD004"/>
<path d="M23.1002 28.7001H18.9002C18.5138 28.7001 18.2002 29.0137 18.2002 29.4C18.2002 29.7864 18.5138 30.1 18.9002 30.1H23.1002C23.4865 30.1 23.8001 29.7864 23.8001 29.4C23.8001 29.0137 23.4865 28.7001 23.1002 28.7001Z" fill="#FFD004"/>
<path d="M38.4997 3.5H3.49978C3.11341 3.5 2.7998 3.81361 2.7998 4.19997V26.6C2.7998 26.9864 3.11341 27.3 3.49978 27.3H38.4998C38.8862 27.3 39.1998 26.9864 39.1998 26.6V4.19997C39.1998 3.81361 38.8862 3.5 38.4997 3.5ZM37.7998 25.8999H4.19975V4.89995H37.7998V25.8999Z" fill="#FFD004"/>
<path d="M30.1002 37.1H11.9003C10.7425 37.1 9.80029 38.0422 9.80029 39.2C9.80029 40.3578 10.7425 41.3 11.9003 41.3H30.1003C31.2581 41.3 32.2003 40.3578 32.2003 39.2C32.2003 38.0422 31.258 37.1 30.1002 37.1ZM30.1002 39.8999H11.9003C11.5139 39.8999 11.2003 39.5857 11.2003 39.2C11.2003 38.8143 11.5139 38.5 11.9003 38.5H30.1003C30.4867 38.5 30.8003 38.8143 30.8003 39.2C30.8003 39.5857 30.4867 39.8999 30.1002 39.8999Z" fill="#FFD004"/>
<path d="M28.7 37.0999C26.3774 37.0999 25.2 35.4514 25.2 32.2C25.2 31.8136 24.8864 31.5 24.5 31.5H17.5001C17.1137 31.5 16.8001 31.8136 16.8001 32.2C16.8001 35.4514 15.6227 37.0999 13.3001 37.0999C12.9137 37.0999 12.6001 37.4136 12.6001 37.7999C12.6001 38.1863 12.9137 38.4999 13.3001 38.4999H28.7C29.0864 38.4999 29.4 38.1863 29.4 37.7999C29.4 37.4136 29.0864 37.0999 28.7 37.0999ZM16.7097 37.0999C17.5714 36.1452 18.0789 34.7234 18.1811 32.8999H23.8196C23.9211 34.7234 24.4286 36.1452 25.291 37.0999H16.7097Z" fill="#FFD004"/>
<path d="M33.449 21.3247L31.7593 19.635L32.6994 18.6949C32.8737 18.5206 32.9436 18.2672 32.8834 18.0285C32.8232 17.7897 32.6419 17.6007 32.406 17.5294L25.406 15.4294C25.159 15.3551 24.8923 15.4231 24.7103 15.6051C24.5276 15.7871 24.4604 16.0545 24.5345 16.3009L26.6345 23.3009C26.7053 23.5374 26.8949 23.7187 27.1336 23.7789C27.3716 23.8378 27.6257 23.7691 27.8 23.5949L28.7898 22.6043L30.4796 24.2948C30.6105 24.4264 30.789 24.4999 30.9745 24.4999C31.16 24.4999 31.3385 24.4264 31.4694 24.2948L33.449 22.3145C33.7227 22.0409 33.7227 21.5985 33.449 21.3247ZM30.9745 22.8101L29.4359 21.2708C29.2574 21.0923 29.0236 21.0034 28.7898 21.0034C28.5553 21.0034 28.3215 21.093 28.1438 21.2701L27.6384 21.7755L26.2488 17.1436L30.8807 18.5331L30.3389 19.0749C30.1898 19.2247 30.1079 19.4236 30.1079 19.635C30.1079 19.8471 30.1905 20.0472 30.3403 20.1956L31.9643 21.8196L30.9745 22.8101Z" fill="#FFD004"/>
<path d="M29.4 6.29993H9.80007C9.4137 6.29993 9.1001 6.61353 9.1001 6.9999V10.4999C9.1001 10.8863 9.4137 11.1999 9.80007 11.1999H29.4C29.7864 11.1999 30.1 10.8863 30.1 10.4999V6.9999C30.1 6.61353 29.7864 6.29993 29.4 6.29993ZM28.7001 9.79996H10.5V7.69995H28.7001V9.79996Z" fill="#FFD004"/>
<path d="M18.1999 14H12.5999C12.2135 14 11.8999 14.3136 11.8999 14.7V17.4999C11.8999 17.8863 12.2135 18.1999 12.5999 18.1999H18.1999C18.5863 18.1999 18.8999 17.8863 18.8999 17.4999V14.7C18.8999 14.3136 18.5863 14 18.1999 14ZM17.4998 16.8H13.2998V15.3999H17.4998V16.8Z" fill="#FFD004"/>
<path d="M29.4 6.29993H9.80007C9.4137 6.29993 9.1001 6.61353 9.1001 6.9999V20.2999C9.1001 20.6862 9.4137 20.9998 9.80007 20.9998H26.4643C26.6862 20.9998 26.8941 20.8956 27.0257 20.7177C27.158 20.54 27.1987 20.3104 27.1349 20.0982L26.2487 17.1436L29.1992 18.0291C29.4114 18.0928 29.641 18.0522 29.818 17.9199C29.9958 17.7883 30.1001 17.5797 30.1001 17.3585V6.9999C30.1 6.61353 29.7864 6.29993 29.4 6.29993ZM28.7001 16.4177L25.4051 15.4293C25.158 15.3551 24.8914 15.423 24.7093 15.6051C24.5266 15.7877 24.4595 16.0544 24.5336 16.3016L25.5234 19.6H10.5V7.69995H28.7001V16.4177Z" fill="#FFD004"/>
</svg>
