<svg width="80" height="80" viewBox="0 0 80 80" fill="none" xmlns="http://www.w3.org/2000/svg">
<g clip-path="url(#clip0)">
<path d="M33.5637 73.2479C24.8766 72.3002 17.2162 68.1936 11.767 62.1126C6.31787 56.0317 3.00099 47.9764 3.00099 39.2893C3.00099 29.8125 6.87068 21.2834 13.0306 15.1235C19.1905 8.96358 27.7986 5.09389 37.2754 5.09389C46.7522 5.09389 55.2813 8.96358 61.5202 15.1235C67.6012 21.2834 71.4709 29.8125 71.4709 39.2893C71.4709 40.237 71.4709 41.1847 71.3919 42.1324C71.3129 43.0801 71.234 44.0277 71.076 44.9754C70.9181 45.7652 71.4709 46.5549 72.2606 46.7128C73.0503 46.8708 73.8401 46.318 73.998 45.5282C74.156 44.5016 74.3139 43.4749 74.3929 42.4483C74.4719 41.4216 74.5508 40.395 74.5508 39.3683C74.5508 29.1018 70.3652 19.7829 63.6525 13.0702C56.9398 6.35746 47.6209 2.17188 37.3544 2.17188C27.0879 2.17188 17.769 6.35746 11.0563 13.0702C4.18559 19.704 0 29.0228 0 39.2893C0 48.7662 3.5538 57.5322 9.55578 64.166C15.4788 70.7207 23.85 75.2222 33.2478 76.2489C34.0375 76.3279 34.8272 75.775 34.9062 74.9063C34.9852 74.1166 34.4324 73.3269 33.5637 73.2479Z" fill="white"/>
<path d="M34.3536 65.1134C27.7198 64.4026 21.9547 61.2437 17.7692 56.5843C13.8995 52.3197 11.5303 46.7916 11.1354 40.7106H14.8471C15.6369 40.7106 16.3476 40.0788 16.3476 39.2101C16.3476 38.4204 15.7158 37.7096 14.8471 37.7096H11.1354C11.5303 31.0759 14.2943 25.1529 18.7168 20.8094C23.1393 16.3868 29.0623 13.6228 35.6171 13.2279V16.9397C35.6171 17.7294 36.2489 18.4402 37.1176 18.4402C37.9074 18.4402 38.6181 17.8084 38.6181 16.9397V13.2279C45.2519 13.6228 51.1749 16.3868 55.5184 20.8094C59.9409 25.2319 62.705 31.1549 63.0999 37.7096H59.3881C58.5984 37.7096 57.8876 38.3414 57.8876 39.2101C57.8876 39.9999 58.5194 40.7106 59.3881 40.7106H63.0999C63.0209 42.2111 62.784 43.6326 62.4681 45.1331C62.1522 47.0285 61.5204 48.9239 60.6517 50.7402C60.2568 51.451 60.5727 52.3987 61.3624 52.7146C62.0732 53.1094 63.0209 52.7936 63.3368 52.0038C64.2845 50.0295 65.0742 47.8972 65.548 45.7649C66.0219 43.6326 66.2588 41.4214 66.2588 39.2101C66.2588 31.2338 63.0209 23.9683 57.7297 18.6771C52.5174 13.4648 45.2519 10.1479 37.1966 10.1479C29.2203 10.1479 21.9547 13.3859 16.6635 18.6771C11.4513 23.9683 8.21338 31.2338 8.21338 39.2891C8.21338 46.7126 10.9774 53.5043 15.6369 58.6376C20.2963 63.7708 26.6931 67.3246 34.0377 68.1144C34.8274 68.1934 35.6171 67.6405 35.6961 66.7718C35.7751 65.9821 35.2223 65.1924 34.3536 65.1134Z" fill="white"/>
<path d="M41.8559 39.2891C41.8559 38.0256 41.3031 36.841 40.5133 35.9722C40.0395 35.4984 39.4077 35.1035 38.697 34.8666V22.7837C38.697 21.915 38.0652 21.2832 37.1965 21.2832C36.4067 21.2832 35.696 21.915 35.696 22.7837V34.8666C35.0642 35.1035 34.4324 35.4194 33.9586 35.8933L33.8796 35.9722C33.4057 36.4461 33.0109 37.0779 32.774 37.7886H23.771C22.9813 37.7886 22.2705 38.4204 22.2705 39.2891C22.2705 40.0789 22.9023 40.7896 23.771 40.7896H32.774C33.0109 41.5004 33.4057 42.1322 33.8796 42.606C34.7483 43.4747 35.9329 43.9486 37.1965 43.9486C38.46 43.9486 39.6446 43.3957 40.5133 42.606C41.3821 41.7373 41.8559 40.5527 41.8559 39.2891ZM38.46 40.4737C38.1441 40.7896 37.7493 40.9476 37.2754 40.9476C36.8016 40.9476 36.3278 40.7896 36.0908 40.4737C35.7749 40.1578 35.617 39.763 35.617 39.2891C35.617 38.8153 35.7749 38.4204 36.0908 38.1045C36.0908 38.1045 36.0908 38.1045 36.1698 38.0256C36.4857 37.7097 36.8806 37.5517 37.3544 37.5517C37.8283 37.5517 38.3021 37.7097 38.539 38.0256C38.8549 38.3415 39.0129 38.7363 39.0129 39.2102C38.9339 39.763 38.7759 40.1578 38.46 40.4737Z" fill="white"/>
<path d="M79.7632 67.5618C79.6052 67.088 79.3683 66.6141 78.9734 66.2193C78.5786 65.8244 78.1837 65.5875 77.7099 65.3506C77.236 65.1926 76.7622 65.1136 76.2094 65.1136V63.2973C76.2094 63.2183 76.2094 63.0603 76.2094 62.9814C76.1304 62.5075 76.0514 62.1127 75.8935 61.7178C75.6565 61.244 75.3407 60.8491 74.9458 60.5332C74.5509 60.2173 74.0771 59.9804 73.5243 59.8224C72.8135 60.0594 72.2607 59.9804 71.7079 59.9804C71.5499 59.9804 71.392 59.9804 71.234 59.9804C71.471 59.5855 71.7079 59.1906 71.8658 58.8748C71.8658 58.8748 71.8658 58.7958 71.9448 58.7958C72.3397 58.085 72.6556 57.5322 72.9715 56.9794C73.1294 56.6635 73.2873 56.2686 73.3663 55.9527C73.4453 55.5579 73.5243 55.242 73.5243 54.8471C73.5243 54.2943 73.3663 53.7415 73.0504 53.1887C72.8135 52.7148 72.4186 52.32 71.8658 52.0041C71.392 51.6882 70.9181 51.3723 70.4443 51.2143C69.8915 51.0564 69.4176 50.8984 68.8648 50.8984C67.9961 50.8984 67.2854 51.1354 66.5746 51.5302C65.9428 51.9251 65.39 52.5569 64.9951 53.2676C63.3367 56.1897 61.9942 58.6378 60.9675 60.5332C59.9408 62.4286 59.1511 63.6921 58.7562 64.4029C58.3614 65.0347 57.9665 65.7454 57.8086 66.4562C57.5716 67.2459 57.4927 67.9567 57.4927 68.8254C57.4927 69.3782 57.5716 69.931 57.8086 70.4838C57.9665 71.0366 58.2824 71.5105 58.5983 71.9054C58.9932 72.3792 59.467 72.7741 60.0198 73.09C60.5726 73.3269 61.1254 73.4848 61.7572 73.4848H67.9172V74.1956C67.9172 74.7484 67.9961 75.3012 68.2331 75.775C68.47 76.3279 68.7859 76.7227 69.2597 77.0386C69.6546 77.3545 70.1284 77.5914 70.6023 77.6704C71.0761 77.8284 71.5499 77.8284 72.1027 77.8284C73.2873 77.8284 74.235 77.5125 74.9458 76.8807C75.7355 76.2489 76.1304 75.3012 76.2094 74.1166C76.2094 73.8797 76.2094 73.6428 76.2094 73.4058H76.2883C77.5519 73.4058 78.4996 72.932 79.1314 72.1423C79.6842 71.3525 80.0001 70.4049 80.0001 69.0623C80.0001 68.5095 79.9211 68.0357 79.7632 67.5618ZM76.5253 70.5628C76.4463 70.6418 76.2883 70.7208 76.0514 70.7208H74.5509C73.7612 70.7208 73.0504 71.3525 73.0504 72.2212C73.0504 72.853 73.0504 73.2479 73.0504 73.4058C73.0504 73.7217 73.0504 74.0376 73.0504 74.3535C73.0504 74.6694 72.9715 74.8274 72.8925 74.9853C72.7345 75.1433 72.4186 75.2222 71.8658 75.2222H71.7869C71.5499 75.2222 71.313 75.2222 71.1551 75.1433C70.9971 75.1433 70.9181 75.0643 70.8392 74.9853L70.7602 74.9063C70.6812 74.8274 70.6812 74.6694 70.6812 74.5115V72.3002C70.6812 71.5105 70.0494 70.7997 69.1807 70.7997H61.5993C61.4413 70.7997 61.2834 70.7997 61.1254 70.7208C60.9675 70.6418 60.8885 70.5628 60.7306 70.4049C60.5726 70.1679 60.4937 70.01 60.4147 69.7731C60.3357 69.6151 60.3357 69.3782 60.3357 69.1413C60.3357 68.5885 60.4147 68.1146 60.5726 67.6408C60.7306 67.167 60.8885 66.7721 61.2044 66.2982L61.2834 66.2193C61.7572 65.4295 62.468 64.166 63.5736 62.2706C64.6003 60.4542 65.9428 58.006 67.6802 54.9261C67.8382 54.6102 68.0751 54.3733 68.312 54.2153C68.47 54.1363 68.7069 54.0574 69.0228 54.0574C69.2597 54.0574 69.4176 54.0574 69.6546 54.1364C69.8915 54.2153 70.1284 54.3733 70.3653 54.5312C70.5233 54.6892 70.6812 54.7681 70.7602 54.9261V55.0051C70.7602 55.084 70.7602 55.242 70.6812 55.321C70.6812 55.4789 70.6023 55.6368 70.5233 55.7948C70.2864 56.2686 69.9705 56.8214 69.5756 57.4532C69.5756 57.4532 69.5756 57.5322 69.4966 57.5322C69.1018 58.243 68.6279 58.9537 68.1541 59.8224C67.5223 60.8491 67.1274 61.5598 66.8905 61.9547C66.5746 62.4285 66.3377 62.8234 66.1797 63.1393L64.3634 66.3772C64.2054 66.6141 64.1264 66.8511 64.1264 67.167C64.1264 67.9567 64.8372 68.6674 65.6269 68.5885L69.4177 68.5095C70.2074 68.5095 70.8392 67.8777 70.8392 67.009V64.3239C70.8392 64.2449 70.8392 64.2449 70.8392 64.166C70.8392 63.6921 70.9181 63.2973 71.0761 63.1393C71.234 62.9814 71.471 62.9814 71.8658 62.9814C72.1817 62.9814 72.4976 62.9814 72.6556 63.0603C72.8135 63.0603 72.8925 63.1393 72.8925 63.1393C72.9715 63.1393 72.9715 63.2183 72.9715 63.2973C73.0504 63.3762 73.0504 63.5342 73.0504 63.6132V66.8511C72.9715 67.7198 73.6032 68.3516 74.4719 68.3516H75.9724C76.1304 68.3516 76.2883 68.3516 76.3673 68.4305C76.4463 68.4305 76.5253 68.5095 76.5253 68.5095C76.6042 68.5885 76.6042 68.6674 76.6832 68.7464C76.7622 68.9044 76.7622 69.0623 76.7622 69.2992C76.7622 69.931 76.6832 70.3259 76.5253 70.5628Z" fill="white"/>
<path d="M57.4137 70.6418C57.0188 70.1679 56.6239 69.8521 56.1501 69.6151C55.6762 69.3782 55.1234 69.2203 54.5706 69.2203C54.4916 69.2203 54.4916 69.2203 54.1758 69.2203C54.0178 69.2203 53.8599 69.2203 53.7019 69.2203C53.544 69.2203 53.386 69.2203 53.307 69.2203C53.2281 69.2203 53.2281 69.2203 52.9122 69.2203C52.8332 69.2203 52.7542 69.2203 52.6753 69.2203H52.5173H51.9645L52.4383 68.8254C52.6753 68.8254 52.9912 68.5885 53.2281 68.4305C53.465 68.2726 53.7019 68.0357 53.9388 67.7987C54.1758 67.5618 54.4916 67.2459 54.8865 66.8511C55.2814 66.4562 55.6762 66.0613 55.9132 65.7454C56.2291 65.3506 56.466 65.0347 56.6239 64.7188C56.7819 64.4819 56.9398 64.166 57.0978 63.7711C57.2557 63.4552 57.4137 63.0603 57.4926 62.6655C57.6506 62.2706 57.7295 61.7968 57.8085 61.3229C57.8875 60.8491 57.8875 60.3752 57.8875 59.9804C57.8875 57.2163 56.8608 54.9261 54.7286 53.2676C53.7019 52.4779 52.5963 51.8461 51.3327 51.4513C50.1481 51.0564 48.8056 50.8984 47.384 50.8984C46.2784 50.8984 45.1728 51.1354 44.1461 51.4513C43.1195 51.8461 42.1718 52.32 41.2241 53.0307C40.3554 53.6625 39.7236 54.3733 39.2498 55.0051C38.697 55.7948 38.4601 56.6635 38.4601 57.4532C38.4601 58.006 38.539 58.4799 38.776 59.0327C38.9339 59.5065 39.2498 59.9804 39.5657 60.3752C39.9606 60.7701 40.3554 61.165 40.9082 61.3229C41.3821 61.5598 41.9349 61.6388 42.4877 61.6388C43.9092 61.6388 45.0938 61.165 45.9625 60.2963L46.0415 60.2173C46.4364 59.9014 46.7523 59.5855 47.0682 59.4276C47.3051 59.2696 47.542 59.2696 47.7789 59.2696C48.0158 59.2696 48.2528 59.2696 48.4107 59.3486C48.5686 59.4276 48.7266 59.5065 48.8845 59.5855C48.9635 59.6645 49.0425 59.6645 49.0425 59.7435C49.0425 59.8224 49.0425 59.8224 49.0425 59.9804C49.0425 60.0593 48.9635 60.2173 48.8056 60.4542V60.5332C48.4897 60.9281 47.621 61.9547 46.0415 63.4552L45.9625 63.5342C45.6466 63.7711 45.3307 64.166 44.7779 64.6398C44.1461 65.1926 43.5933 65.7454 42.9615 66.2193C42.0928 67.009 41.54 67.4828 41.3031 67.7198C40.8293 68.1146 40.5923 68.3516 40.5134 68.4305C40.5134 68.4305 40.5134 68.5095 40.4344 68.5095C40.1185 68.8254 39.8026 69.2203 39.4867 69.5362C39.1708 69.931 38.9339 70.3259 38.776 70.6418C38.618 71.0366 38.4601 71.4315 38.3811 71.9054C38.3021 72.3792 38.2231 72.7741 38.2231 73.2479C38.2231 74.5115 38.618 75.6171 39.4077 76.4068C39.8026 76.8807 40.2764 77.1966 40.8293 77.4335C41.3821 77.6704 41.9349 77.7494 42.5667 77.7494H42.6456C44.2251 77.7494 45.6466 77.7494 46.9892 77.8284C48.7266 77.8284 49.8322 77.8284 50.3061 77.8284H54.1758H54.2547C54.8075 77.8284 55.2814 77.7494 55.7552 77.5914C55.8342 77.5914 55.8342 77.5914 55.9132 77.5125C56.387 77.3545 56.7819 77.0386 57.1767 76.7227C57.5716 76.3279 57.8875 75.854 58.1244 75.2222C58.2824 74.6694 58.3613 74.1166 58.3613 73.4848C58.3613 73.011 58.2824 72.4582 58.1244 71.9843C57.9665 71.5105 57.7295 71.0366 57.4137 70.6418ZM55.5183 74.5115C55.4393 74.6694 55.4393 74.7484 55.3604 74.8274C55.2814 74.9063 55.2024 74.9853 55.1234 74.9853H55.0445C54.8865 75.0643 54.7286 75.0643 54.5706 75.0643C54.4916 75.0643 54.4916 75.0643 54.4127 75.0643H50.543C49.2004 75.0643 48.0948 75.0643 47.2261 75.0643C45.9625 75.0643 44.541 75.0643 42.9615 74.9853C42.8826 74.9853 42.8826 74.9853 42.8036 74.9853C42.5667 74.9853 42.4087 74.9853 42.2508 74.9063C42.0928 74.8274 41.9349 74.7484 41.8559 74.5904C41.619 74.2746 41.461 73.9587 41.461 73.4058C41.461 73.09 41.461 72.853 41.54 72.6951C41.619 72.4582 41.619 72.3002 41.698 72.1423C41.7769 71.9843 41.9349 71.7474 42.0928 71.5105C42.2508 71.2736 42.4877 71.0367 42.7246 70.7997L42.8036 70.7208C42.8826 70.6418 43.1195 70.4049 43.5144 70.089C44.1461 69.5362 44.62 69.0623 45.1728 68.6674C45.9625 67.9567 46.5943 67.4039 46.9892 67.009C47.463 66.6141 47.8579 66.2193 48.1738 65.9034L48.2528 65.8244C49.9112 64.166 50.9378 63.0603 51.3327 62.4286V62.3496C51.8066 61.6388 52.0435 60.9281 52.0435 60.2173C52.0435 59.6645 51.8855 59.1117 51.6486 58.6378C51.4117 58.164 51.0958 57.7691 50.622 57.4532C50.2271 57.1373 49.7532 56.9004 49.2794 56.7425C48.8056 56.5845 48.3317 56.5056 47.7789 56.5056C47.0682 56.5056 46.4364 56.6635 45.7256 57.0584C45.1728 57.3743 44.62 57.7691 43.9882 58.3219L43.9092 58.4009C43.5933 58.7168 43.1195 58.8748 42.4877 58.8748C42.3298 58.8748 42.1718 58.8747 42.0928 58.7958C42.0139 58.7168 41.8559 58.6378 41.7769 58.5589C41.619 58.4009 41.54 58.243 41.54 58.164C41.461 58.006 41.461 57.8481 41.461 57.6112C41.461 57.2953 41.54 57.0584 41.7769 56.7425C42.0139 56.3476 42.4877 55.9527 43.0405 55.4789C43.6723 54.9261 44.3831 54.6102 45.1728 54.2943C45.8836 54.0574 46.6733 53.8994 47.542 53.8994C48.6476 53.8994 49.5953 53.9784 50.543 54.2943C51.4117 54.6102 52.2804 55.0051 52.9912 55.5579C54.3337 56.6635 55.0445 58.085 55.0445 59.9804C55.0445 60.2963 55.0445 60.6122 54.9655 60.8491C54.8865 61.086 54.8865 61.4019 54.7286 61.7178C54.6496 62.0337 54.4916 62.3496 54.4127 62.5865C54.3337 62.8234 54.1758 63.0603 54.0968 63.2183C54.0178 63.3762 53.8599 63.5342 53.7019 63.7711C53.465 64.008 53.2281 64.3239 52.8332 64.6398C52.5173 64.9557 52.2014 65.2716 51.8855 65.5875C51.6486 65.8244 51.4117 66.0613 51.2537 66.1403C51.0958 66.2193 50.8589 66.4562 50.464 66.8511C50.2271 67.088 49.7532 67.4039 49.1215 67.9567L46.8312 69.852C46.5153 70.089 46.2784 70.4838 46.2784 70.9577C46.2784 71.7474 46.9102 72.4582 47.6999 72.5371C48.2528 72.5371 48.8845 72.5371 49.7532 72.5371C50.543 72.5371 51.4907 72.5371 52.5963 72.4582C52.6753 72.4582 52.6753 72.4582 52.7542 72.4582H52.9912C53.0701 72.4582 53.1491 72.4582 53.386 72.4582C53.544 72.4582 53.7019 72.4582 53.8599 72.4582C54.0178 72.4582 54.1758 72.4582 54.3337 72.4582C54.4127 72.4582 54.4127 72.4582 54.7286 72.4582C54.8865 72.4582 54.9655 72.4582 55.0445 72.5371C55.1234 72.6161 55.2024 72.6161 55.2814 72.7741C55.3604 72.932 55.4393 73.09 55.5183 73.2479C55.5973 73.4059 55.5973 73.5638 55.5973 73.8007C55.5973 74.1166 55.5973 74.3535 55.5183 74.5115Z" fill="white"/>
</g>
<defs>
<clipPath id="clip0">
<rect width="80" height="80" fill="white"/>
</clipPath>
</defs>
</svg>
