<svg width="80" height="80" viewBox="0 0 80 80" fill="none" xmlns="http://www.w3.org/2000/svg">
<path d="M71.0582 58.6692C69.7859 56.4644 67.9084 55.0302 65.4779 54.4069C64.8973 54.258 64.3121 54.1645 63.7315 54.1275C63.8065 53.2923 63.8456 52.4509 63.8456 51.6109C63.8456 50.5447 63.7845 49.4772 63.6634 48.4198C67.9832 47.8288 71.3156 44.2381 71.3156 39.9105C71.3156 35.1716 67.3185 31.3159 62.4056 31.3159C61.9237 31.3159 61.4481 31.3547 60.981 31.4267C61.991 28.9941 62.5471 26.342 62.5471 23.5677C62.5471 21.7639 62.3135 19.9839 61.8512 18.2562C65.3957 16.7591 67.7545 13.3669 67.7545 9.53C67.7546 4.27516 63.3192 0 57.8673 0C54.5437 0 51.4678 1.61844 49.6512 4.22656C46.7568 2.94719 43.5782 2.27641 40.371 2.27641C37.1638 2.27641 33.9853 2.94719 31.0909 4.22656C29.274 1.61844 26.1979 0 22.8743 0C17.4223 0 12.9867 4.27531 12.9867 9.53031C12.9867 13.3673 15.3457 16.7595 18.8903 18.2567C18.4279 19.9848 18.1942 21.765 18.1942 23.568C18.1942 26.3423 18.7504 28.9942 19.7603 31.427C19.2932 31.355 18.8178 31.3162 18.3359 31.3162C13.4228 31.3162 9.42572 35.1717 9.42572 39.9108C9.42572 44.2381 12.7585 47.8286 17.0779 48.4202C16.9568 49.4781 16.8956 50.5459 16.8956 51.6113C16.8956 52.4744 16.937 53.3386 17.0162 54.1966C16.9559 54.1953 16.8957 54.1934 16.8351 54.1934C16.0704 54.1934 15.2923 54.2936 14.522 54.4909C12.0915 55.1142 10.2142 56.5481 8.94166 58.7531C6.73932 62.5697 6.85447 68.2102 7.94541 72.1073C9.24682 76.7545 13.6421 80 18.6346 80C18.8438 80 19.0534 79.9931 19.2624 79.9816C19.2715 79.9814 19.2804 79.9814 19.2895 79.9809C19.3032 79.9803 19.317 79.9791 19.3307 79.9783C19.347 79.9773 19.3631 79.9762 19.3792 79.9752C23.4718 79.7525 27.0748 77.3367 28.7788 73.8505C32.301 76.0344 36.2695 77.1794 40.3704 77.1794C44.2854 77.1794 48.0992 76.1252 51.5089 74.1198C51.5639 74.2227 51.6179 74.3259 51.6765 74.4275C53.1506 76.9817 55.5768 78.8025 58.5081 79.5542C59.4434 79.7941 60.4046 79.9159 61.3648 79.9159C66.3573 79.9159 70.7526 76.6703 72.0535 72.0233C73.1454 68.1263 73.2604 62.4856 71.0582 58.6692ZM16.1126 9.53031C16.1126 5.99891 19.1459 3.12578 22.8743 3.12578C25.5415 3.12578 27.9673 4.61781 29.0542 6.92703C29.2357 7.31281 29.5671 7.6075 29.9712 7.74312C30.3754 7.87859 30.8173 7.84313 31.1949 7.645C33.9885 6.17766 37.1615 5.40219 40.3706 5.40219C43.5798 5.40219 46.7526 6.17766 49.5462 7.645C49.9237 7.84328 50.3659 7.87875 50.7699 7.74312C51.1742 7.6075 51.5054 7.31266 51.687 6.92703C52.774 4.61781 55.1996 3.12578 57.867 3.12578C61.5954 3.12578 64.6287 5.99875 64.6287 9.53031C64.6287 12.0289 63.1089 14.2506 60.8059 15.3003C60.4346 14.4548 60.0074 13.6316 59.5271 12.8408C59.0789 12.1031 58.1179 11.8686 57.3801 12.3164C56.6424 12.7645 56.4076 13.7258 56.8557 14.4634C57.4931 15.5127 58.022 16.6277 58.4276 17.7778C58.4375 17.8059 58.449 17.8328 58.4603 17.86C59.097 19.6952 59.4212 21.6147 59.4212 23.568C59.4212 33.0827 51.7096 40.9116 41.9332 41.6723V30.0514C44.1957 29.2766 45.7938 26.9263 45.7938 24.8512C45.7938 23.7134 45.2654 21.0669 40.3704 21.0669C35.4754 21.0669 34.947 23.7134 34.947 24.8512C34.947 26.9263 36.5449 29.2766 38.8076 30.0514V41.6723C29.0313 40.9117 21.3196 33.0828 21.3196 23.568C21.3196 21.5861 21.6523 19.6373 22.3085 17.7758C22.4556 17.3586 22.419 16.8989 22.2078 16.5102C21.9967 16.1214 21.6307 15.8406 21.2007 15.7369C18.2049 15.0147 16.1126 12.4623 16.1126 9.53031ZM40.3709 53.7622C39.5078 53.7622 38.8081 54.4619 38.8081 55.325V60.062C33.5135 59.3011 29.4309 54.737 29.4309 49.2353C29.4309 47.0084 30.1137 44.8428 31.3682 43.0241C34.1209 44.2028 37.1674 44.8594 40.3709 44.8594C43.5743 44.8594 46.6209 44.2028 49.3737 43.0241C50.6282 44.843 51.3112 47.0084 51.3112 49.2353C51.3112 54.7369 47.2284 59.3011 41.934 60.062V55.325C41.9337 54.4619 41.234 53.7622 40.3709 53.7622ZM38.0732 24.8512C38.0732 24.6989 38.0732 24.6358 38.3315 24.5086C38.571 24.3906 39.1546 24.1928 40.3709 24.1928C41.5871 24.1928 42.1707 24.3908 42.4103 24.5086C42.6685 24.6358 42.6685 24.6989 42.6685 24.8512C42.6685 25.7322 41.5945 27.1898 40.3707 27.1898C39.147 27.1897 38.0732 25.7322 38.0732 24.8512ZM25.616 72.9494C24.5657 74.7692 22.8253 76.0695 20.7153 76.6106C20.2045 76.7416 19.6837 76.8241 19.1612 76.8573C19.1598 76.8573 19.1584 76.8575 19.1571 76.8577C18.9832 76.8686 18.8092 76.8741 18.6353 76.8741C15.0387 76.8742 11.881 74.5673 10.956 71.2644C10.071 68.1033 9.91057 63.3288 11.6495 60.3152C12.4976 58.8456 13.6912 57.9306 15.2988 57.5184C15.8156 57.3859 16.3326 57.3187 16.8354 57.3187C17.364 57.3187 17.877 57.392 18.3728 57.5273C18.3962 57.5345 18.4195 57.5417 18.4434 57.5478C22.4695 58.6984 25.3596 63.9423 26.3257 67.3936C26.8515 69.272 26.5995 71.2452 25.616 72.9494ZM50.6645 66.4669C50.2346 68.0022 50.1678 69.5805 50.449 71.1055C47.3874 73.0355 43.9254 74.0536 40.371 74.0536C36.5484 74.0536 32.854 72.8873 29.6332 70.6742C29.8129 69.3109 29.7176 67.9141 29.336 66.5511C28.1984 62.4875 24.9953 56.8034 20.2363 54.8691C20.0945 53.7937 20.022 52.7019 20.022 51.6109C20.022 50.1319 20.1545 48.6481 20.416 47.2011C20.5018 46.7262 20.3637 46.2388 20.0415 45.8795C19.7193 45.5203 19.2492 45.3298 18.7684 45.3641C18.6251 45.3742 18.4799 45.3792 18.3367 45.3792C15.1471 45.3792 12.5523 42.9258 12.5523 39.9103C12.5523 36.8948 15.1471 34.4416 18.3367 34.4416C19.8624 34.4416 21.297 34.9978 22.3848 36.0072C24.0529 38.2242 26.154 40.1217 28.5682 41.585C27.0993 43.8519 26.3054 46.5087 26.3054 49.2353C26.3054 56.9912 32.6154 63.3011 40.3712 63.3011C48.127 63.3011 54.437 56.9911 54.437 49.2353C54.437 46.5087 53.6431 43.852 52.1742 41.585C54.5885 40.1219 56.6896 38.2244 58.3576 36.0072C59.4456 34.9975 60.8801 34.4416 62.4059 34.4416C65.5953 34.4416 68.1901 36.8948 68.1901 39.9103C68.1901 42.9258 65.5953 45.3792 62.4059 45.3792C62.2628 45.3792 62.1173 45.3741 61.9737 45.3641C61.4928 45.3298 61.0226 45.5203 60.7004 45.8795C60.3785 46.2388 60.2401 46.7264 60.3259 47.2013C60.5873 48.6466 60.7199 50.1302 60.7199 51.6108C60.7199 52.5786 60.6631 53.548 60.5515 54.5041C55.3585 56.0983 51.864 62.1833 50.6645 66.4669ZM69.0442 71.1806C68.1196 74.4836 64.962 76.7905 61.3654 76.7905C60.667 76.7905 59.9671 76.7019 59.2851 76.5269C57.1749 75.9858 55.4343 74.6855 54.3843 72.8656C53.4009 71.1612 53.1487 69.1881 53.6745 67.3102C54.692 63.6763 57.8421 58.0552 62.2054 57.3172C62.2224 57.3144 62.2395 57.3114 62.2564 57.3081C62.5537 57.2605 62.8567 57.2355 63.1649 57.2355C63.6679 57.2355 64.1849 57.3027 64.7015 57.4352C66.309 57.8475 67.5028 58.7622 68.351 60.2319C70.0898 63.2448 69.9293 68.0195 69.0442 71.1806Z" fill="white"/>
<path d="M50.1977 17.7039C48.7553 17.7039 47.5786 18.83 47.5786 20.2104C47.5786 21.591 48.7552 22.7171 50.1977 22.7171C51.6402 22.7171 52.8166 21.591 52.8166 20.2104C52.8166 18.83 51.6402 17.7039 50.1977 17.7039Z" fill="white"/>
<path d="M30.5444 17.7039C29.1019 17.7039 27.9253 18.83 27.9253 20.2104C27.9253 21.591 29.1017 22.7171 30.5444 22.7171C31.9867 22.7171 33.1633 21.591 33.1633 20.2104C33.1633 18.83 31.9867 17.7039 30.5444 17.7039Z" fill="white"/>
<path d="M56.3864 8.84038L56.35 8.80429C55.7302 8.20366 54.7385 8.21663 54.1377 8.83648C53.5369 9.45616 53.5499 10.4432 54.1697 11.044C54.1708 11.0449 54.1781 11.0524 54.1794 11.0535C54.4836 11.3579 54.8816 11.5098 55.2799 11.5098C55.6794 11.5098 56.0791 11.3569 56.3849 11.0521C56.9952 10.4434 56.9942 9.45194 56.3864 8.84038Z" fill="white"/>
<path d="M40.3704 49.2351C39.5073 49.2351 38.8076 49.9348 38.8076 50.7979V50.8348C38.8076 51.6979 39.5073 52.3976 40.3704 52.3976C41.2336 52.3976 41.9333 51.6979 41.9333 50.8348V50.7979C41.9333 49.9348 41.2336 49.2351 40.3704 49.2351Z" fill="white"/>
</svg>
