<svg width="81" height="80" viewBox="0 0 81 80" fill="none" xmlns="http://www.w3.org/2000/svg">
<g clip-path="url(#clip0)">
<path d="M40.4801 0C27.6475 0 17.2075 10.3113 17.2075 22.9853C17.2075 28.2537 19.0536 33.3902 22.4097 37.4706C22.4347 37.5089 22.4616 37.5462 22.4904 37.5825L39.233 58.7675C39.5328 59.1469 39.9929 59.3686 40.4801 59.3686C40.9674 59.3686 41.4273 59.1467 41.7271 58.7672L58.5501 37.4708C58.556 37.4633 58.5617 37.4559 58.5674 37.4484C61.9113 33.3731 63.7525 28.2392 63.7525 22.9853C63.7528 10.3113 53.3128 0 40.4801 0ZM56.0755 35.5225C56.0554 35.5469 56.0364 35.5714 56.0181 35.5966L40.4798 55.2667L25.0984 35.8042C25.0601 35.7425 25.0171 35.683 24.9696 35.6261C22.0042 32.0812 20.3713 27.592 20.3713 22.9853C20.3713 12.0342 29.3922 3.12469 40.4801 3.12469C51.5681 3.12469 60.589 12.0342 60.5892 22.9853C60.5892 27.5428 58.9861 31.9953 56.0755 35.5225Z" fill="white"/>
<path d="M54.1341 19.3374C53.8868 18.5097 53.007 18.0369 52.1692 18.281C51.3312 18.5252 50.8523 19.394 51.0996 20.2216C52.2496 24.0718 51.1806 28.2251 48.3097 31.0605C46.2184 33.1262 43.4376 34.2637 40.48 34.2637C37.5224 34.2637 34.7417 33.1262 32.6502 31.0604C30.5588 28.9947 29.4071 26.2485 29.4071 23.3272C29.4071 20.406 30.5588 17.6596 32.6504 15.5941C35.5242 12.7557 39.7328 11.7008 43.6341 12.8415C44.4721 13.0866 45.3521 12.6143 45.6 11.7869C45.848 10.9596 45.3698 10.0902 44.5323 9.84537C39.5178 8.37944 34.1079 9.73569 30.4134 13.3846C27.7246 16.0404 26.2437 19.5715 26.2437 23.3272C26.2437 27.083 27.7244 30.614 30.4134 33.2697C33.1024 35.9255 36.6776 37.3882 40.4804 37.3882C44.2831 37.3882 47.8582 35.9255 50.5471 33.2701C54.2379 29.6249 55.6123 24.2862 54.1341 19.3374Z" fill="white"/>
<path d="M50.5747 13.4122L50.5467 13.3844C49.9287 12.7742 48.9272 12.7742 48.3095 13.3844C47.6917 13.9947 47.6917 14.9839 48.3095 15.5939L48.3375 15.6217C48.6463 15.9269 49.0512 16.0794 49.456 16.0794C49.8609 16.0794 50.2657 15.9269 50.5747 15.6217C51.1923 15.0116 51.1923 14.0223 50.5747 13.4122Z" fill="white"/>
<path d="M64.8014 47.7038C63.9716 47.4345 63.0773 47.8797 62.8042 48.6994C62.5312 49.5189 62.9825 50.402 63.8123 50.6719C72.591 53.525 77.8318 57.7999 77.8318 62.1069C77.8318 65.7488 74.0287 69.4338 67.3975 72.2166C60.2388 75.2208 50.6865 76.8753 40.5 76.8753C30.3134 76.8753 20.7611 75.2208 13.6024 72.2166C6.97134 69.4338 3.16814 65.7489 3.16814 62.1069C3.16814 59.0569 5.83165 55.9588 10.6682 53.3828C15.7784 50.6611 23.0154 48.69 31.0459 47.8327C31.9144 47.7399 32.5425 46.9694 32.4485 46.1114C32.3546 45.2536 31.5741 44.6327 30.7058 44.7261C22.2778 45.6259 14.6284 47.7236 9.16641 50.6327C3.17257 53.825 0.00439453 57.7927 0.00439453 62.1069C0.00439453 67.1355 4.39421 71.7472 12.3651 75.0924C19.9065 78.2569 29.8981 79.9999 40.5001 79.9999C51.1021 79.9999 61.0937 78.2569 68.6348 75.0924C76.6057 71.7472 80.9955 67.1356 80.9955 62.1069C80.9955 56.2984 75.0931 51.0488 64.8014 47.7038Z" fill="white"/>
<path d="M57.5633 45.8306L57.5082 45.8197C56.6519 45.6492 55.8175 46.1966 55.6448 47.0423C55.4722 47.8881 56.0264 48.7122 56.8827 48.8828L56.9378 48.8937C57.0434 48.9147 57.1485 48.9248 57.2523 48.9248C57.9897 48.9248 58.6497 48.4125 58.8012 47.6711C58.9738 46.8253 58.4197 46.0012 57.5633 45.8306Z" fill="white"/>
<path d="M28.5397 52.6595C28.3684 51.8136 27.5351 51.265 26.6783 51.4339C26.6427 51.4409 26.6049 51.4496 26.5697 51.4592C25.727 51.6862 25.2301 52.545 25.4599 53.3775C25.6518 54.0724 26.2894 54.5292 26.9852 54.5292C27.1097 54.5292 27.2358 54.5146 27.3617 54.4842C28.1826 54.2881 28.7069 53.4848 28.5397 52.6595Z" fill="white"/>
<path d="M45.778 50.1165C44.9061 50.0501 44.1456 50.692 44.0774 51.5522C44.0093 52.4123 44.6601 53.1644 45.531 53.2317C55.8593 54.0301 61.3602 57.0137 61.3602 58.8604C61.3602 59.7514 59.9221 61.2648 55.8691 62.5979C51.7871 63.9406 46.329 64.6801 40.4998 64.6801C34.6707 64.6801 29.2124 63.9408 25.1306 62.5979C21.0776 61.2648 19.6395 59.7514 19.6395 58.8604C19.6395 58.0462 20.7575 57.0197 22.6302 56.1148C23.4148 55.7356 23.7396 54.8 23.3557 54.025C22.9717 53.25 22.0244 52.929 21.2396 53.3084C17.3022 55.2112 16.4756 57.3779 16.4756 58.8608C16.4756 64.7328 28.5612 67.8051 40.4997 67.8051C52.4382 67.8051 64.5238 64.7328 64.5239 58.8606C64.5241 53.4762 54.4257 50.7851 45.778 50.1165Z" fill="white"/>
</g>
<defs>
<clipPath id="clip0">
<rect width="81" height="80" fill="white"/>
</clipPath>
</defs>
</svg>
