<svg width="81" height="80" viewBox="0 0 81 80" fill="none" xmlns="http://www.w3.org/2000/svg">
<g clip-path="url(#clip0)">
<path d="M15.5903 19.0625H21.9185C22.7917 19.0625 23.5005 18.363 23.5005 17.5V10C23.5005 9.13696 22.7917 8.4375 21.9185 8.4375H15.5903C14.7165 8.4375 14.0083 9.13696 14.0083 10V17.5C14.0083 18.363 14.7165 19.0625 15.5903 19.0625ZM17.1724 11.5625H20.3364V15.9375H17.1724V11.5625Z" fill="white"/>
<path d="M28.2466 19.0625H34.5747C35.4479 19.0625 36.1567 18.363 36.1567 17.5V10C36.1567 9.13696 35.4479 8.4375 34.5747 8.4375H28.2466C27.3728 8.4375 26.6646 9.13696 26.6646 10V17.5C26.6646 18.363 27.3728 19.0625 28.2466 19.0625ZM29.8286 11.5625H32.9927V15.9375H29.8286V11.5625Z" fill="white"/>
<path d="M40.9028 19.0625H47.231C48.1042 19.0625 48.813 18.363 48.813 17.5V10C48.813 9.13696 48.1042 8.4375 47.231 8.4375H40.9028C40.029 8.4375 39.3208 9.13696 39.3208 10V17.5C39.3208 18.363 40.029 19.0625 40.9028 19.0625ZM42.4849 11.5625H45.6489V15.9375H42.4849V11.5625Z" fill="white"/>
<path d="M14.0083 31.25C14.0083 32.113 14.7165 32.8125 15.5903 32.8125H21.9185C22.7917 32.8125 23.5005 32.113 23.5005 31.25V23.75C23.5005 22.887 22.7917 22.1875 21.9185 22.1875H15.5903C14.7165 22.1875 14.0083 22.887 14.0083 23.75V31.25ZM17.1724 25.3125H20.3364V29.6875H17.1724V25.3125Z" fill="white"/>
<path d="M26.6646 31.25C26.6646 32.113 27.3728 32.8125 28.2466 32.8125H34.5747C35.4479 32.8125 36.1567 32.113 36.1567 31.25V23.75C36.1567 22.887 35.4479 22.1875 34.5747 22.1875H28.2466C27.3728 22.1875 26.6646 22.887 26.6646 23.75V31.25ZM29.8286 25.3125H32.9927V29.6875H29.8286V25.3125Z" fill="white"/>
<path d="M14.0083 45C14.0083 45.863 14.7165 46.5625 15.5903 46.5625H21.9185C22.7917 46.5625 23.5005 45.863 23.5005 45V37.5C23.5005 36.637 22.7917 35.9375 21.9185 35.9375H15.5903C14.7165 35.9375 14.0083 36.637 14.0083 37.5V45ZM17.1724 39.0625H20.3364V43.4375H17.1724V39.0625Z" fill="white"/>
<path d="M26.6646 45C26.6646 45.863 27.3728 46.5625 28.2466 46.5625H34.5747C35.4479 46.5625 36.1567 45.863 36.1567 45V37.5C36.1567 36.637 35.4479 35.9375 34.5747 35.9375H28.2466C27.3728 35.9375 26.6646 36.637 26.6646 37.5V45ZM29.8286 39.0625H32.9927V43.4375H29.8286V39.0625Z" fill="white"/>
<path d="M70.875 70.625C69.9913 70.625 69.1131 70.7721 68.2826 71.0559C66.6066 69.3085 64.4165 68.1903 62.0156 67.8479V61.0425C64.0531 62.5891 66.5788 63.476 69.2083 63.476C75.7101 63.476 81 58.2513 81 51.8298C81 47.7533 78.8037 43.9624 75.3164 41.8683C75.3937 41.2561 75.4326 40.6372 75.4326 40.0195C75.4326 31.8512 68.704 25.2057 60.4336 25.2057C58.9758 25.2057 57.5668 25.4126 56.2332 25.7977V1.5625C56.2332 0.699463 55.525 0 54.6511 0H7.82302C6.94981 0 6.24099 0.699463 6.24099 1.5625V30C6.24099 30.863 6.94981 31.5625 7.82302 31.5625C8.69685 31.5625 9.40505 30.863 9.40505 30V3.125H53.0691V27.1179C51.4364 28.031 49.9928 29.2371 48.8125 30.6647V23.75C48.8125 22.887 48.1043 22.1875 47.2304 22.1875H40.9023C40.0291 22.1875 39.3203 22.887 39.3203 23.75V31.25C39.3203 32.113 40.0291 32.8125 40.9023 32.8125H47.2304C47.2663 32.8125 47.3015 32.8094 47.3361 32.807C46.7805 33.7878 46.3337 34.8364 46.0136 35.9375H40.9023C40.0291 35.9375 39.3203 36.637 39.3203 37.5V45C39.3203 45.863 40.0291 46.5625 40.9023 46.5625H41.1538C40.3653 48.0927 39.9129 49.7974 39.8715 51.5625H18.3516C17.4777 51.5625 16.7695 52.262 16.7695 53.125V69.375H9.40567V42.5C9.40567 41.637 8.69685 40.9375 7.82364 40.9375C6.94981 40.9375 6.24161 41.637 6.24161 42.5V69.375H1.58203C0.708206 69.375 0 70.0745 0 70.9375V78.4375C0 79.3005 0.708206 80 1.58203 80H77.2031C78.0763 80 78.7852 79.3005 78.7852 78.4375C78.7852 74.1296 75.2367 70.625 70.875 70.625ZM45.649 29.6875H42.485V25.3125H45.649V29.6875ZM42.082 58.6115V69.375H32.5898V54.6875H40.2275C40.5946 56.1194 41.2329 57.4451 42.082 58.6115ZM45.2461 61.5955C47.0932 62.7826 49.2951 63.476 51.6589 63.476C52.1335 63.476 52.6038 63.4442 53.0697 63.3875V69.375H45.2461V61.5955ZM56.2338 62.5507C57.1669 62.16 58.047 61.6534 58.8516 61.0425V67.8491C57.937 67.9822 57.0594 68.2269 56.2338 68.5712V62.5507ZM60.4336 28.3307C66.9595 28.3307 72.2685 33.5742 72.2685 40.0195C72.2685 40.8191 72.1864 41.6187 72.0238 42.3969C71.8755 43.103 72.2364 43.8165 72.8958 44.1254C75.8967 45.5292 77.8359 48.5535 77.8359 51.8298C77.8359 56.5283 73.9655 60.351 69.2083 60.351C66.3242 60.351 63.6063 58.8971 62.0156 56.532V52.3572L67.8444 46.6003C68.4624 45.99 68.4624 45.0006 67.8444 44.3903C67.2264 43.7805 66.2253 43.7805 65.6073 44.3903L62.0156 47.9376V40.7501C62.0156 39.8871 61.3074 39.1876 60.4336 39.1876C59.5604 39.1876 58.8516 39.8871 58.8516 40.7501V44.5496L56.1522 41.8835C55.5342 41.2732 54.5331 41.2732 53.9151 41.8835C53.2971 42.4939 53.2971 43.4833 53.9151 44.0936L58.8516 48.9691V51.709V51.7108V56.532C57.2609 58.8971 54.543 60.351 51.6589 60.351C46.9017 60.351 43.0312 56.5283 43.0312 51.8298C43.0312 48.5535 44.9705 45.5292 47.9714 44.1254C48.6308 43.8165 48.9911 43.103 48.844 42.3969C48.6814 41.6193 48.5986 40.8191 48.5986 40.0195C48.5986 33.5742 53.9077 28.3307 60.4336 28.3307ZM42.485 39.0625H45.4667C45.4463 39.3793 45.4346 39.6979 45.4346 40.0195C45.4346 40.6378 45.4735 41.2561 45.5508 41.8683C44.8024 42.3175 44.114 42.8455 43.4935 43.4375H42.485V39.0625ZM19.9336 54.6875H29.4258V69.375H19.9336V54.6875ZM3.16406 72.5H51.4222C50.5484 73.7891 49.9514 75.2747 49.7135 76.875H3.16406V72.5ZM60.4336 76.875H52.9245C53.6562 73.4436 56.7449 70.8594 60.4336 70.8594C62.8697 70.8594 65.1074 71.9647 66.5726 73.8916C67.0454 74.5129 67.9087 74.6973 68.5984 74.3237C69.2917 73.9484 70.079 73.75 70.875 73.75C72.9372 73.75 74.6972 75.0562 75.3498 76.875H60.4336Z" fill="white"/>
<path d="M7.82324 37.8125C8.23914 37.8125 8.64763 37.6453 8.94179 37.3547C9.23595 37.0642 9.40527 36.6608 9.40527 36.25C9.40527 35.8392 9.23595 35.4358 8.94179 35.1453C8.64763 34.8547 8.23914 34.6875 7.82324 34.6875C7.40734 34.6875 6.99886 34.8547 6.7047 35.1453C6.41054 35.4358 6.24121 35.8392 6.24121 36.25C6.24121 36.6608 6.41054 37.0642 6.7047 37.3547C6.99947 37.6453 7.40734 37.8125 7.82324 37.8125Z" fill="white"/>
</g>
<defs>
<clipPath id="clip0">
<rect width="81" height="80" fill="white"/>
</clipPath>
</defs>
</svg>
