<svg width="35" height="35" viewBox="0 0 35 35" fill="none" xmlns="http://www.w3.org/2000/svg">
<circle cx="17.5" cy="17.5" r="17.5" fill="#FFCF03"/>
<g clip-path="url(#clip0)">
<path d="M25.9046 22.14C25.8828 22.093 25.8625 22.0541 25.8436 22.0229C25.5313 21.4604 24.9345 20.77 24.0536 19.9515L24.0349 19.9328L24.0256 19.9236L24.0162 19.9142H24.0068C23.6069 19.533 23.3538 19.2768 23.2477 19.1456C23.0537 18.8956 23.0103 18.6426 23.1163 18.3863C23.1912 18.1926 23.4726 17.7836 23.9598 17.1587C24.216 16.8276 24.419 16.5621 24.5689 16.3622C25.6499 14.9251 26.1185 14.0068 25.9747 13.6068L25.9189 13.5134C25.8814 13.4571 25.7845 13.4057 25.6285 13.3587C25.4721 13.3119 25.2723 13.3041 25.0285 13.3353L22.3295 13.354C22.2858 13.3385 22.2234 13.3399 22.142 13.3587C22.0608 13.3775 22.0201 13.3869 22.0201 13.3869L21.9732 13.4104L21.9359 13.4386C21.9046 13.4572 21.8703 13.49 21.8327 13.5369C21.7954 13.5836 21.7642 13.6384 21.7392 13.7009C21.4454 14.4569 21.1113 15.1598 20.7363 15.8095C20.5051 16.197 20.2928 16.5327 20.0989 16.817C19.9053 17.1012 19.7428 17.3106 19.6117 17.4448C19.4804 17.5792 19.3619 17.6868 19.2555 17.7681C19.1493 17.8495 19.0682 17.8838 19.012 17.8713C18.9557 17.8587 18.9027 17.8462 18.8525 17.8338C18.7651 17.7775 18.6948 17.701 18.6418 17.6041C18.5885 17.5073 18.5527 17.3854 18.5339 17.2386C18.5153 17.0917 18.5043 16.9653 18.5011 16.859C18.4982 16.7529 18.4995 16.6028 18.5059 16.4091C18.5124 16.2154 18.5153 16.0843 18.5153 16.0155C18.5153 15.7781 18.5199 15.5204 18.5292 15.2423C18.5387 14.9643 18.5463 14.744 18.5527 14.5817C18.5591 14.4193 18.562 14.2474 18.562 14.0662C18.562 13.885 18.551 13.7429 18.5292 13.6398C18.5077 13.5368 18.4746 13.4368 18.4311 13.3398C18.3872 13.243 18.3231 13.1681 18.2389 13.1149C18.1546 13.0618 18.0498 13.0197 17.925 12.9883C17.5938 12.9134 17.1721 12.8729 16.6597 12.8666C15.4976 12.8541 14.7509 12.9291 14.4198 13.0916C14.2886 13.1602 14.1699 13.254 14.0637 13.3726C13.9512 13.5101 13.9355 13.5852 14.0167 13.5975C14.3917 13.6537 14.6571 13.788 14.8133 14.0005L14.8696 14.113C14.9134 14.1942 14.9571 14.338 15.0009 14.5441C15.0446 14.7503 15.0728 14.9783 15.0852 15.2281C15.1164 15.6843 15.1164 16.0748 15.0852 16.3996C15.0539 16.7246 15.0243 16.9776 14.9961 17.1588C14.968 17.34 14.9258 17.4868 14.8696 17.5992C14.8133 17.7117 14.7759 17.7804 14.7571 17.8054C14.7383 17.8303 14.7227 17.846 14.7103 17.8522C14.6291 17.8833 14.5446 17.8992 14.4572 17.8992C14.3697 17.8992 14.2635 17.8554 14.1386 17.7679C14.0137 17.6804 13.8841 17.5602 13.7497 17.4071C13.6154 17.2539 13.4638 17.0399 13.2951 16.7651C13.1265 16.4902 12.9515 16.1653 12.7703 15.7904L12.6204 15.5186C12.5267 15.3437 12.3987 15.089 12.2362 14.7548C12.0736 14.4205 11.93 14.0971 11.8051 13.7847C11.7551 13.6535 11.6801 13.5536 11.5802 13.4849L11.5333 13.4567C11.5021 13.4318 11.452 13.4053 11.3834 13.377C11.3146 13.3488 11.2428 13.3286 11.1678 13.3162L8.59991 13.3348C8.33751 13.3348 8.15947 13.3943 8.06572 13.513L8.0282 13.5692C8.00945 13.6004 8 13.6504 8 13.7192C8 13.7879 8.01874 13.8723 8.05626 13.9722C8.43113 14.8532 8.83878 15.7029 9.27923 16.5213C9.71968 17.3398 10.1024 17.9991 10.4272 18.4986C10.7521 18.9985 11.0832 19.4703 11.4207 19.9138C11.7581 20.3574 11.9814 20.6417 12.0907 20.7666C12.2001 20.8918 12.286 20.9853 12.3485 21.0478L12.5828 21.2727C12.7328 21.4226 12.953 21.6023 13.2435 21.8115C13.5341 22.0209 13.8558 22.2271 14.2088 22.4303C14.5619 22.6332 14.9726 22.7987 15.4413 22.9268C15.9099 23.055 16.3659 23.1064 16.8096 23.0816H17.8874C18.1059 23.0627 18.2716 22.994 18.3841 22.8754L18.4214 22.8284C18.4465 22.7911 18.4699 22.7332 18.4916 22.6552C18.5135 22.5771 18.5244 22.4911 18.5244 22.3975C18.518 22.1289 18.5385 21.8868 18.5852 21.6713C18.6319 21.4558 18.6852 21.2933 18.7447 21.1839C18.8042 21.0746 18.8714 20.9824 18.9461 20.9076C19.0211 20.8327 19.0744 20.7873 19.1057 20.7716C19.1369 20.7559 19.1617 20.7453 19.1805 20.7389C19.3304 20.6889 19.5069 20.7373 19.7101 20.8842C19.9132 21.0311 20.1037 21.2124 20.2819 21.4278C20.4599 21.6435 20.6739 21.8854 20.9238 22.1541C21.1738 22.4228 21.3924 22.6225 21.5798 22.7539L21.7671 22.8664C21.8923 22.9414 22.0547 23.0101 22.2547 23.0726C22.4543 23.135 22.6292 23.1507 22.7794 23.1194L25.1785 23.082C25.4158 23.082 25.6004 23.0427 25.7314 22.9648C25.8626 22.8867 25.9406 22.8006 25.9657 22.7071C25.9908 22.6134 25.9922 22.5071 25.9705 22.3883C25.9483 22.2697 25.9264 22.1868 25.9046 22.14Z" fill="white"/>
</g>
<defs>
<clipPath id="clip0">
<rect x="8" y="9" width="18" height="18" fill="white"/>
</clipPath>
</defs>
</svg>
