<svg width="35" height="35" viewBox="0 0 35 35" fill="none" xmlns="http://www.w3.org/2000/svg">
<circle cx="17.5" cy="17.5" r="17.5" fill="#FFCF03"/>
<g clip-path="url(#clip0)">
<path d="M25.9924 22.6247C26.0263 22.8845 25.9471 23.1103 25.7552 23.3022L23.5025 25.538C23.4008 25.6509 23.2682 25.747 23.1044 25.8259C22.9407 25.905 22.7798 25.9558 22.6218 25.9784C22.6105 25.9784 22.5765 25.9813 22.5201 25.9869C22.4637 25.9925 22.3903 25.9954 22.2999 25.9954C22.0853 25.9954 21.7381 25.9587 21.2582 25.8853C20.7783 25.8119 20.1911 25.6312 19.4967 25.3433C18.8021 25.0553 18.0145 24.6234 17.1338 24.0475C16.253 23.4717 15.3158 22.6812 14.3221 21.6762C13.5316 20.897 12.8767 20.1518 12.3572 19.4404C11.8378 18.729 11.42 18.0712 11.1038 17.4671C10.7876 16.863 10.5505 16.3153 10.3924 15.8241C10.2343 15.3329 10.127 14.9094 10.0706 14.5537C10.0141 14.198 9.99153 13.9186 10.0028 13.7153C10.0141 13.512 10.0198 13.3991 10.0198 13.3765C10.0423 13.2184 10.0932 13.0575 10.1722 12.8938C10.2512 12.7301 10.3472 12.5974 10.4602 12.4958L12.7129 10.243C12.871 10.0849 13.0517 10.0059 13.2549 10.0059C13.4017 10.0059 13.5316 10.0482 13.6445 10.1329C13.7574 10.2176 13.8534 10.322 13.9325 10.4462L15.7448 13.8847C15.8465 14.0654 15.8747 14.263 15.8295 14.4775C15.7844 14.6921 15.6884 14.8727 15.5416 15.0195L14.7116 15.8495C14.689 15.8721 14.6693 15.9088 14.6523 15.9596C14.6354 16.0104 14.6269 16.0528 14.6269 16.0866C14.6721 16.3238 14.7737 16.5948 14.9318 16.8997C15.0673 17.1707 15.2762 17.501 15.5585 17.8905C15.8408 18.2801 16.2417 18.7289 16.7611 19.2371C17.2693 19.7566 17.7209 20.1602 18.1162 20.4482C18.5113 20.736 18.8417 20.9479 19.1071 21.0834C19.3724 21.2189 19.5757 21.3007 19.7168 21.3289L19.9285 21.3712C19.9511 21.3712 19.9878 21.3628 20.0386 21.3458C20.0894 21.3289 20.1261 21.3091 20.1487 21.2865L21.1142 20.3041C21.3175 20.1235 21.5546 20.0331 21.8256 20.0331C22.0176 20.0331 22.17 20.067 22.2829 20.1348H22.2998L25.5688 22.0657C25.806 22.2126 25.9472 22.3989 25.9924 22.6247Z" fill="white"/>
</g>
<defs>
<clipPath id="clip0">
<rect x="10" y="10" width="16" height="16" fill="white"/>
</clipPath>
</defs>
</svg>
