<svg width="35" height="35" viewBox="0 0 35 35" fill="none" xmlns="http://www.w3.org/2000/svg">
<circle cx="17.5" cy="17.5" r="17.5" fill="white"/>
<path d="M24.4 10H11.6C10.72 10 10 10.72 10 11.6V24.4C10 25.28 10.72 26 11.6 26H24.4C25.28 26 26 25.28 26 24.4V11.6C26 10.72 25.28 10 24.4 10ZM18 14.8C19.76 14.8 21.2 16.24 21.2 18C21.2 19.76 19.76 21.2 18 21.2C16.24 21.2 14.8 19.76 14.8 18C14.8 16.24 16.24 14.8 18 14.8ZM12 24.4C11.76 24.4 11.6 24.24 11.6 24V17.2H13.28C13.2 17.44 13.2 17.76 13.2 18C13.2 20.64 15.36 22.8 18 22.8C20.64 22.8 22.8 20.64 22.8 18C22.8 17.76 22.8 17.44 22.72 17.2H24.4V24C24.4 24.24 24.24 24.4 24 24.4H12ZM24.4 13.6C24.4 13.84 24.24 14 24 14H22.4C22.16 14 22 13.84 22 13.6V12C22 11.76 22.16 11.6 22.4 11.6H24C24.24 11.6 24.4 11.76 24.4 12V13.6Z" fill="#DF665D"/>
</svg>
