<svg width="16" height="16" viewBox="0 0 16 16" fill="none" xmlns="http://www.w3.org/2000/svg">
<g clip-path="url(#clip0)">
<path d="M15.9924 12.6247C16.0263 12.8845 15.9471 13.1103 15.7552 13.3022L13.5025 15.538C13.4008 15.6509 13.2682 15.747 13.1044 15.8259C12.9407 15.905 12.7798 15.9558 12.6218 15.9784C12.6105 15.9784 12.5765 15.9813 12.5201 15.9869C12.4637 15.9925 12.3903 15.9954 12.2999 15.9954C12.0853 15.9954 11.7381 15.9587 11.2582 15.8853C10.7783 15.8119 10.1911 15.6312 9.49669 15.3433C8.80212 15.0553 8.01453 14.6234 7.13378 14.0475C6.25303 13.4717 5.31576 12.6812 4.32206 11.6762C3.53162 10.897 2.87668 10.1518 2.35724 9.44039C1.83781 8.72897 1.42 8.0712 1.10383 7.46708C0.78762 6.86295 0.550487 6.31529 0.392399 5.82409C0.23431 5.33288 0.127036 4.90943 0.0705753 4.55373C0.0141151 4.19803 -0.00846903 3.91855 0.00282301 3.7153C0.0141151 3.51204 0.0197611 3.39912 0.0197611 3.37653C0.0423452 3.21845 0.0931594 3.05753 0.172204 2.8938C0.251248 2.73007 0.34723 2.59738 0.460151 2.49576L2.71291 0.242992C2.871 0.0849037 3.05168 0.00585938 3.25493 0.00585938C3.40173 0.00585938 3.53159 0.0482045 3.64451 0.132895C3.75743 0.217585 3.85341 0.322037 3.93246 0.446249L5.74483 3.88468C5.84646 4.06535 5.87469 4.26296 5.82952 4.47751C5.78435 4.69206 5.68837 4.87273 5.54157 5.01953L4.71161 5.84949C4.68902 5.87208 4.66926 5.90878 4.65232 5.95959C4.63539 6.01041 4.62692 6.05275 4.62692 6.08663C4.67208 6.32376 4.77371 6.59477 4.9318 6.89965C5.06731 7.17066 5.27621 7.50096 5.55851 7.89053C5.84081 8.28011 6.24168 8.72894 6.76111 9.23708C7.26925 9.75657 7.72094 10.1602 8.11616 10.4482C8.5113 10.736 8.8417 10.9479 9.10706 11.0834C9.37243 11.2189 9.57568 11.3007 9.71681 11.3289L9.92848 11.3712C9.95106 11.3712 9.98784 11.3628 10.0386 11.3458C10.0894 11.3289 10.1261 11.3091 10.1487 11.2865L11.1142 10.3041C11.3175 10.1235 11.5546 10.0331 11.8256 10.0331C12.0176 10.0331 12.17 10.067 12.2829 10.1348H12.2998L15.5688 12.0657C15.806 12.2126 15.9472 12.3989 15.9924 12.6247Z" fill="white"/>
</g>
<defs>
<clipPath id="clip0">
<rect width="16" height="16" fill="white"/>
</clipPath>
</defs>
</svg>
