<svg width="35" height="35" viewBox="0 0 35 35" fill="none" xmlns="http://www.w3.org/2000/svg">
<circle cx="17.5" cy="17.5" r="17.5" fill="white"/>
<g clip-path="url(#clip0)">
<path d="M25.9046 22.1399C25.8828 22.0929 25.8625 22.0539 25.8436 22.0227C25.5313 21.4603 24.9345 20.7699 24.0536 19.9514L24.0349 19.9326L24.0256 19.9235L24.0162 19.914H24.0068C23.6069 19.5329 23.3538 19.2766 23.2477 19.1454C23.0537 18.8955 23.0103 18.6425 23.1163 18.3862C23.1912 18.1925 23.4726 17.7835 23.9598 17.1586C24.216 16.8274 24.419 16.562 24.5689 16.362C25.6499 14.925 26.1185 14.0066 25.9747 13.6067L25.9189 13.5133C25.8814 13.457 25.7845 13.4055 25.6285 13.3586C25.4721 13.3118 25.2723 13.304 25.0285 13.3352L22.3295 13.3539C22.2858 13.3384 22.2234 13.3398 22.142 13.3586C22.0608 13.3774 22.0201 13.3868 22.0201 13.3868L21.9732 13.4103L21.9359 13.4385C21.9046 13.4571 21.8703 13.4899 21.8327 13.5368C21.7954 13.5835 21.7642 13.6383 21.7392 13.7008C21.4454 14.4568 21.1113 15.1597 20.7363 15.8094C20.5051 16.1968 20.2928 16.5326 20.0989 16.8169C19.9053 17.1011 19.7428 17.3105 19.6117 17.4447C19.4804 17.5791 19.3619 17.6867 19.2555 17.768C19.1493 17.8494 19.0682 17.8837 19.012 17.8712C18.9557 17.8586 18.9027 17.8461 18.8525 17.8336C18.7651 17.7774 18.6948 17.7009 18.6418 17.604C18.5885 17.5072 18.5527 17.3853 18.5339 17.2385C18.5153 17.0916 18.5043 16.9652 18.5011 16.8589C18.4982 16.7528 18.4995 16.6027 18.5059 16.409C18.5124 16.2152 18.5153 16.0841 18.5153 16.0154C18.5153 15.7779 18.5199 15.5202 18.5292 15.2422C18.5387 14.9642 18.5463 14.7439 18.5527 14.5816C18.5591 14.4191 18.562 14.2473 18.562 14.0661C18.562 13.8849 18.551 13.7428 18.5292 13.6396C18.5077 13.5366 18.4746 13.4367 18.4311 13.3397C18.3872 13.2429 18.3231 13.168 18.2389 13.1148C18.1546 13.0617 18.0498 13.0195 17.925 12.9882C17.5938 12.9133 17.1721 12.8727 16.6597 12.8664C15.4976 12.854 14.7509 12.929 14.4198 13.0915C14.2886 13.1601 14.1699 13.2539 14.0637 13.3725C13.9512 13.51 13.9355 13.5851 14.0167 13.5974C14.3917 13.6536 14.6571 13.7879 14.8133 14.0003L14.8696 14.1129C14.9134 14.1941 14.9571 14.3379 15.0009 14.544C15.0446 14.7502 15.0728 14.9782 15.0852 15.228C15.1164 15.6842 15.1164 16.0747 15.0852 16.3995C15.0539 16.7245 15.0243 16.9775 14.9961 17.1586C14.968 17.3398 14.9258 17.4867 14.8696 17.5991C14.8133 17.7116 14.7759 17.7803 14.7571 17.8052C14.7383 17.8302 14.7227 17.8459 14.7103 17.8521C14.6291 17.8832 14.5446 17.8991 14.4572 17.8991C14.3697 17.8991 14.2635 17.8553 14.1386 17.7678C14.0137 17.6802 13.8841 17.56 13.7497 17.4069C13.6154 17.2538 13.4638 17.0398 13.2951 16.7649C13.1265 16.4901 12.9515 16.1652 12.7703 15.7903L12.6204 15.5185C12.5267 15.3436 12.3987 15.0889 12.2362 14.7547C12.0736 14.4204 11.93 14.097 11.8051 13.7846C11.7551 13.6534 11.6801 13.5535 11.5802 13.4848L11.5333 13.4566C11.5021 13.4316 11.452 13.4051 11.3834 13.3769C11.3146 13.3487 11.2428 13.3285 11.1678 13.3161L8.59991 13.3347C8.33751 13.3347 8.15947 13.3941 8.06572 13.5129L8.0282 13.569C8.00945 13.6003 8 13.6503 8 13.719C8 13.7878 8.01874 13.8721 8.05626 13.972C8.43113 14.8531 8.83878 15.7027 9.27923 16.5212C9.71968 17.3397 10.1024 17.999 10.4272 18.4985C10.7521 18.9984 11.0832 19.4702 11.4207 19.9137C11.7581 20.3573 11.9814 20.6416 12.0907 20.7665C12.2001 20.8916 12.286 20.9852 12.3485 21.0477L12.5828 21.2725C12.7328 21.4225 12.953 21.6021 13.2435 21.8114C13.5341 22.0208 13.8558 22.2269 14.2088 22.4302C14.5619 22.633 14.9726 22.7986 15.4413 22.9267C15.9099 23.0549 16.3659 23.1063 16.8096 23.0815H17.8874C18.1059 23.0626 18.2716 22.9939 18.3841 22.8752L18.4214 22.8283C18.4465 22.791 18.4699 22.733 18.4916 22.6551C18.5135 22.577 18.5244 22.4909 18.5244 22.3974C18.518 22.1288 18.5385 21.8867 18.5852 21.6711C18.6319 21.4557 18.6852 21.2932 18.7447 21.1838C18.8042 21.0745 18.8714 20.9823 18.9461 20.9075C19.0211 20.8325 19.0744 20.7872 19.1057 20.7715C19.1369 20.7558 19.1617 20.7451 19.1805 20.7387C19.3304 20.6888 19.5069 20.7372 19.7101 20.8841C19.9132 21.0309 20.1037 21.2122 20.2819 21.4277C20.4599 21.6434 20.6739 21.8853 20.9238 22.1539C21.1738 22.4226 21.3924 22.6224 21.5798 22.7538L21.7671 22.8662C21.8923 22.9413 22.0547 23.01 22.2547 23.0725C22.4543 23.1349 22.6292 23.1505 22.7794 23.1193L25.1785 23.0819C25.4158 23.0819 25.6004 23.0426 25.7314 22.9647C25.8626 22.8866 25.9406 22.8005 25.9657 22.7069C25.9908 22.6133 25.9922 22.507 25.9705 22.3881C25.9483 22.2696 25.9264 22.1867 25.9046 22.1399Z" fill="#DF665D"/>
</g>
<defs>
<clipPath id="clip0">
<rect x="8" y="9" width="18" height="18" fill="white"/>
</clipPath>
</defs>
</svg>
